/vscmnt/brussel_pixiu_data/_data_brussel/112/vsc11236/PredSimResults/SUBJ06opt3D/weighted-expIG/worker_02.mot
version=1
nRows=9
nColumns=50
inDegrees=yes
endheader
                time	         pelvis_tilt	         pelvis_list	     pelvis_rotation	           pelvis_tx	           pelvis_ty	           pelvis_tz	       hip_flexion_r	     hip_adduction_r	      hip_rotation_r	        knee_angle_r	       ankle_angle_r	         mtp_angle_r	       hip_flexion_l	     hip_adduction_l	      hip_rotation_l	        knee_angle_l	       ankle_angle_l	         mtp_angle_l	    lumbar_extension	      lumbar_bending	     lumbar_rotation	 ercspn_r/activation	 intobl_r/activation	 extobl_r/activation	    abd_r/activation	    add_r/activation	hamstrings_r/activation	bifemsh_r/activation	glut_max_r/activation	iliopsoas_r/activation	rect_fem_r/activation	  vasti_r/activation	gastroc_r/activation	 soleus_r/activation	tib_ant_r/activation	 ercspn_l/activation	 intobl_l/activation	 extobl_l/activation	    abd_l/activation	    add_l/activation	hamstrings_l/activation	bifemsh_l/activation	glut_max_l/activation	iliopsoas_l/activation	rect_fem_l/activation	  vasti_l/activation	gastroc_l/activation	 soleus_l/activation	tib_ant_l/activation	
          1.84568829	         -5.94844056	          0.91281674	         -4.51041450	          2.04871400	          0.92970798	          0.01081323	        -10.19766197	         -0.74545577	         -6.74766767	        -11.00210811	          8.84007966	         33.14545938	         32.10154888	         -1.07016146	         -7.23982721	         -9.01166102	          0.06441265	          0.23048865	         -5.37767345	          0.21465672	          8.21394184	          0.16445773	          0.00999999	          0.00999999	          0.08052394	          0.00999999	          0.00999999	          0.23925586	          0.01452208	          0.61555794	          0.01662003	          0.00999999	          0.24015597	          0.37900267	          0.02120375	          0.18441659	          0.15113571	          0.00999999	          0.00999999	          0.43616448	          0.06172785	          0.09379396	          0.07995803	          0.11186346	          0.00999999	          0.00999999	          0.00999999	          0.00999999	          0.50681661	
          1.85799288	         -6.03368590	          0.88256117	         -4.52794959	          2.06549079	          0.92795160	          0.00996697	        -10.59016156	         -0.90100877	         -7.13086330	        -11.94973318	          7.86813771	         35.03013090	         32.23744235	         -0.96845246	         -7.02886170	        -10.89723899	         -0.16598753	          0.19936043	         -5.02827821	         -0.16881798	          8.70621721	          0.15911992	          0.00999999	          0.00999999	          0.06682061	          0.00999999	          0.00999999	          0.22080487	          0.01205075	          0.60471868	          0.01379168	          0.00999999	          0.20022316	          0.35506382	          0.01759535	          0.15303310	          0.12541587	          0.00999999	          0.00999999	          0.36193925	          0.06989158	          0.07783237	          0.09826471	          0.09282685	          0.00999999	          0.00999999	          0.01452208	          0.01452208	          0.52390879	
          1.87029747	         -6.09626123	          0.89429209	         -4.52283807	          2.08264502	          0.92646312	          0.00902089	        -10.82133884	         -1.13829787	         -7.51179627	        -13.25017357	          6.75697870	         36.96739609	         32.18122465	         -0.87149955	         -6.84208362	        -12.57659142	         -0.41079595	          0.19095092	         -4.65962649	         -0.59879736	          9.15087634	          0.15225050	          0.00999999	          0.00999999	          0.05544927	          0.00999999	          0.00999999	          0.21001011	          0.00999999	          0.58225687	          0.01144466	          0.00999999	          0.16614976	          0.32795981	          0.01460103	          0.14940009	          0.10407295	          0.00999999	          0.03848944	          0.32198069	          0.07243949	          0.06458708	          0.11130592	          0.07702985	          0.00999999	          0.02128514	          0.01205075	          0.01205076	          0.57571783	
          1.88260206	         -6.13784916	          0.92755439	         -4.48822061	          2.09995930	          0.92531786	          0.00794291	        -10.82602696	         -1.44270854	         -7.90415510	        -14.98659107	          5.46702696	         38.95090107	         32.00495630	         -0.76724140	         -6.83834560	        -14.05659634	         -0.79860963	          0.16941121	         -4.29952437	         -1.04794651	          9.53691037	          0.17813957	          0.00999999	          0.00999999	          0.04601307	          0.00999999	          0.00999999	          0.19369322	          0.00999999	          0.49214472	          0.00999999	          0.00999999	          0.13787486	          0.28687889	          0.01211626	          0.15132328	          0.08636212	          0.00999999	          0.08209101	          0.30183024	          0.07510292	          0.05359584	          0.10830507	          0.06392113	          0.00999999	          0.08924571	          0.00999999	          0.00999999	          0.62619401	
          1.89490664	         -6.15998865	          0.98714014	         -4.42826154	          2.11727422	          0.92464504	          0.00674890	        -10.56506196	         -1.82543614	         -8.31314266	        -17.18816857	          3.93789194	         40.92475410	         31.72656221	         -0.64276451	         -6.95645385	        -15.41575518	         -0.96892024	          0.12984358	         -3.96111484	         -1.52032163	          9.86207920	          0.21095074	          0.00999999	          0.00999999	          0.03818270	          0.00999999	          0.01000000	          0.16287949	          0.00999999	          0.40839294	          0.00999999	          0.00999999	          0.11441171	          0.23805866	          0.01005435	          0.14604392	          0.07166526	          0.00999999	          0.13196815	          0.27021871	          0.07434213	          0.04447505	          0.12867317	          0.05304321	          0.00999999	          0.14569004	          0.00999999	          0.00999999	          0.64303659	
          1.90721123	         -6.16605999	          1.07846591	         -4.35038378	          2.13439516	          0.92461004	          0.00545532	        -10.00204443	         -2.29864904	         -8.73150956	        -19.87001637	          2.13809964	         42.70818526	         31.36664515	         -0.47585724	         -7.09435456	        -16.72479462	         -0.60375583	          0.12761589	         -3.65820365	         -2.01862199	         10.13028031	          0.24613906	          0.00999999	          0.00999999	          0.03168487	          0.06352120	          0.09689225	          0.15413736	          0.00999999	          0.33889379	          0.00999999	          0.00999999	          0.09494145	          0.19754651	          0.00999999	          0.13854044	          0.05946947	          0.00999999	          0.17867898	          0.22987819	          0.07314308	          0.03690641	          0.12394460	          0.04401647	          0.00999999	          0.23231090	          0.00999999	          0.00999999	          0.58104005	
          1.91951582	         -6.16103455	          1.19303625	         -4.26141238	          2.15114405	          0.92536912	          0.00408998	         -9.10908548	         -2.85795370	         -9.16015935	        -23.03276599	          0.10280832	         43.93780507	         30.88810349	         -0.25198788	         -7.15539303	        -17.89307348	          0.33155428	          0.28485589	         -3.40203216	         -2.53025439	         10.34723822	          0.26014650	          0.00999999	          0.00999999	          0.02629283	          0.16761255	          0.13276396	          0.13608393	          0.00999999	          0.28122181	          0.00999999	          0.00999999	          0.07878459	          0.16392861	          0.00999999	          0.12548290	          0.04934912	          0.00999999	          0.20552355	          0.21259650	          0.07170813	          0.03062578	          0.10285207	          0.03652587	          0.00999999	          0.28419386	          0.00999999	          0.00999999	          0.48554935	
          1.93182041	         -6.14955098	          1.30046765	         -4.15948660	          2.16741005	          0.92698331	          0.00269027	         -7.87983392	         -3.47660301	         -9.61263665	        -26.67693725	         -1.99476728	         44.03660715	         30.23309511	          0.00475582	         -7.14322350	        -18.73224936	          1.44268631	          0.63319257	         -3.20070705	         -3.02117437	         10.51114225	          0.25859138	          0.00999999	          0.00999999	          0.02181839	          0.22973230	          0.14573596	          0.11292556	          0.00999999	          0.23336429	          0.00999999	          0.00999999	          0.06537725	          0.13603171	          0.00999999	          0.12133758	          0.04095103	          0.00999999	          0.21256627	          0.20254092	          0.07394551	          0.02541398	          0.08534900	          0.03031000	          0.00999999	          0.29552104	          0.00999999	          0.00999999	          0.40291995	
          1.94412500	         -6.13382658	          1.36970506	         -4.04149435	          2.18317346	          0.92937022	          0.00129682	         -6.35061344	         -4.12243815	        -10.07515955	        -30.68018095	         -4.27344834	         43.05368403	         29.37968895	          0.25607260	         -7.09154827	        -19.14548028	          2.41138911	          1.08821143	         -3.05548013	         -3.45933028	         10.61722994	          0.25191468	          0.00999999	          0.00999999	          0.01810540	          0.25999468	          0.15693172	          0.11440559	          0.00999999	          0.19365102	          0.00999999	          0.00999999	          0.05425154	          0.11288222	          0.00999999	          0.11397085	          0.03398210	          0.00999999	          0.20633685	          0.18542858	          0.07708605	          0.02108910	          0.07082455	          0.02515193	          0.00999999	          0.28644905	          0.00999999	          0.00999999	          0.34507017	
